<svg style="" width="34.718750" height="57.750000" version="1.1" xmlns="http://www.w3.org/2000/svg">
<path d="M10.270840 28.875000 L32.098965 50.703125 C32.901053 51.505212 33.302090 52.479161 33.302090 53.625000 C33.302090 54.770839 32.901053 55.744788 32.098965 56.546875 C31.296878 57.348962 30.322929 57.750000 29.177090 57.750000 C28.031251 57.750000 27.057303 57.348962 26.255215 56.546875 L1.333340 31.625000 C-0.500002 29.791657 -0.442711 27.901051 1.505215 25.953125 L26.255215 1.203125 C27.057303 0.401038 28.031251 -0.000000 29.177090 -0.000000 C30.322929 -0.000000 31.296878 0.401038 32.098965 1.203125 C32.901053 2.005212 33.302090 2.979161 33.302090 4.125000 C33.302090 5.270839 32.901053 6.244788 32.098965 7.046875 Z M33.302090 61.875000" style="fill:black"/>
</svg>